<?xml version="1.0" encoding="UTF-8"?>
<svg xmlns="http://www.w3.org/2000/svg" xmlns:xlink="http://www.w3.org/1999/xlink" width="300px" height="67px" viewBox="0 0 360 80" version="1.1">
<g id="surface1">
<path style=" stroke:none;fill-rule:nonzero;fill:rgb(98.431373%,52.156863%,0%);fill-opacity:1;" d="M 0 0 L 15 2.675781 C 30 5.25 60 10.75 90 20 C 120 29.25 150 42.75 180 44 C 210 45.25 240 34.75 270 38.675781 C 300 42.75 330 61.25 345 70.675781 L 360 80 L 360 0 L 345 0 C 330 0 300 0 270 0 C 240 0 210 0 180 0 C 150 0 120 0 90 0 C 60 0 30 0 15 0 Z M 0 0 "/>
</g>
</svg>
