<svg id="visual" viewBox="0 0 960 540" width="960" height="540" xmlns="http://www.w3.org/2000/svg" xmlns:xlink="http://www.w3.org/1999/xlink" version="1.1"><rect x="0" y="0" width="960" height="540" fill="#CCCCCC"></rect><path d="M0 34L22.8 40.5C45.7 47 91.3 60 137 63.8C182.7 67.7 228.3 62.3 274 66.8C319.7 71.3 365.3 85.7 411.2 76.8C457 68 503 36 548.8 33.2C594.7 30.3 640.3 56.7 686 59.7C731.7 62.7 777.3 42.3 823 34.5C868.7 26.7 914.3 31.3 937.2 33.7L960 36L960 0L937.2 0C914.3 0 868.7 0 823 0C777.3 0 731.7 0 686 0C640.3 0 594.7 0 548.8 0C503 0 457 0 411.2 0C365.3 0 319.7 0 274 0C228.3 0 182.7 0 137 0C91.3 0 45.7 0 22.8 0L0 0Z" fill="#fb8500" stroke-linecap="round" stroke-linejoin="miter"></path></svg>